PathFileType	4	(X/Y/Z)	/Users/niels/Desktop/University/Third Semester/Perception and Action/Exam/Gymnastics Motion Tracking/Code for Gym Tracking/Analyzed Data/Webcam_Backflip/id3_3_baseline_Sports2D/id3_3_baseline_Sports2D_px_person00.trc
DataRate	CameraRate	NumFrames	NumMarkers	Units	OrigDataRate	OrigDataStartFrame	OrigNumFrames
29.81132075471698	29.81132075471698	11	22	m	29.81132075471698	0	159
Frame#	Time	Hip			RHip			RKnee			RAnkle			RBigToe			RSmallToe			RHeel			LHip			LKnee			LAnkle			LBigToe			LSmallToe			LHeel			Neck			Head			Nose			RShoulder			RElbow			RWrist			LShoulder			LElbow			LWrist		
		X1	Y1	Z1	X2	Y2	Z2	X3	Y3	Z3	X4	Y4	Z4	X5	Y5	Z5	X6	Y6	Z6	X7	Y7	Z7	X8	Y8	Z8	X9	Y9	Z9	X10	Y10	Z10	X11	Y11	Z11	X12	Y12	Z12	X13	Y13	Z13	X14	Y14	Z14	X15	Y15	Z15	X16	Y16	Z16	X17	Y17	Z17	X18	Y18	Z18	X19	Y19	Z19	X20	Y20	Z20	X21	Y21	Z21	X22	Y22	Z22
0	0.0	0.9837016716464498	-0.5648437521019349	0.0	0.985722250418937	-0.5648438712837526	0.0	0.9837073560453092	-0.6780431508566264	0.0	0.9756187250519937	-0.7952968753941603	0.0	1.003919555120422	-0.8134993373215081	0.0	0.9897731583518234	-0.8175455507407873	0.0	0.9675302974884087	-0.8134969505889155	0.0	0.9877467096774079	-0.5628196782551373	0.0	0.9877505280189698	-0.6760207085953566	0.0	0.979658660577922	-0.7912585477231433	0.0	1.0140277281266825	-0.8094576549763928	0.0	1.0140257801742874	-0.805419170225986	0.0	0.9715710052756121	-0.8074339269114296	0.0	0.9796640665019271	-0.40717181033200783	0.0	1.018085087287296	-0.3344034951770677	0.0	1.007967245478938	-0.3748372424804374	0.0	0.9715693263246761	-0.4152621594937632	0.0	0.9715864781292137	-0.33037224262457526	0.0	0.9675555060701668	-0.2676982305371149	0.0	0.9837150832335209	-0.41525852364798027	0.0	0.9857361459879742	-0.3445050116322116	0.0	0.975634880373948	-0.2878837544626385	0.0
1	0.03354430379746835	0.9840810580977738	-0.5641379129685065	0.0	0.9849013248800784	-0.5646256842892735	0.0	0.9839235946623717	-0.6776705750812503	0.0	0.9755348292541414	-0.7956693148701889	0.0	1.0039304956737491	-0.8146775493810349	0.0	0.9905843986042483	-0.818756760768439	0.0	0.9672616412932354	-0.8135263035494092	0.0	0.9875829575196915	-0.563119598057271	0.0	0.9870497509165381	-0.6763074000628511	0.0	0.9785629294734183	-0.7917009686676361	0.0	1.012194627213587	-0.8113349953609923	0.0	1.0108589523328708	-0.807549038515985	0.0	0.9693836823129757	-0.8081264863778211	0.0	0.9806608921067871	-0.4086050327933508	0.0	1.0186145990150226	-0.3352784319580696	0.0	1.0116162363744414	-0.37677443565617036	0.0	0.9703231857264393	-0.4158022301126761	0.0	0.9732145221194118	-0.3344430856898216	0.0	0.9684409382601116	-0.27030420548036166	0.0	0.9848808350286933	-0.417143884753775	0.0	0.9867716598842259	-0.34760802282884645	0.0	0.9771687752870064	-0.2911179791164114	0.0
2	0.0670886075949367	0.9842702262682428	-0.5636977487853725	0.0	0.9841652358966569	-0.5645116423662956	0.0	0.9841395669790186	-0.6774964602594965	0.0	0.9755327830925337	-0.7959819499262675	0.0	1.0040832846144885	-0.8155867329595649	0.0	0.9913196072996572	-0.8197844938682735	0.0	0.9670581590994599	-0.8135265838550999	0.0	0.9872975153065011	-0.5633425653597924	0.0	0.9864641223404401	-0.676665007704043	0.0	0.977709249751592	-0.7920300113950979	0.0	1.0106951098024135	-0.8127692410353013	0.0	1.0084081399018463	-0.80924727570069	0.0	0.9676613920022402	-0.8086766522371599	0.0	0.9815123757733826	-0.4096742830946908	0.0	1.0193356104122475	-0.33601059902372693	0.0	1.014411877145855	-0.37834623337468565	0.0	0.9695501888587404	-0.4162146736621762	0.0	0.9748946406700573	-0.3376651886475302	0.0	0.9695667082644822	-0.2722203009732776	0.0	0.9857586107056933	-0.4185712000599331	0.0	0.9879010616517981	-0.34995134765279046	0.0	0.9786578362439319	-0.29325683376963885	0.0
3	0.10063291139240506	0.9841219269779373	-0.5635964991127733	0.0	0.9835122125929323	-0.5645156770999387	0.0	0.9843264466704864	-0.6775298017716193	0.0	0.9755946655080592	-0.79615164760698	0.0	1.004417861060945	-0.8159407183407259	0.0	0.9919639261992103	-0.8204361307355125	0.0	0.9669210193044097	-0.8134930076919258	0.0	0.9868279573550933	-0.56345785305928	0.0	0.9860410426217475	-0.6770729230200769	0.0	0.9772284063632729	-0.7921330679907438	0.0	1.0098380970049023	-0.8134134403397983	0.0	1.0070932276515185	-0.8101404838875287	0.0	0.9666859343448321	-0.80896572522308	0.0	0.9821808586922883	-0.4101145404383165	0.0	1.0203351208850528	-0.33646607676109785	0.0	1.0160045226790042	-0.3792814043622917	0.0	0.9694795897792994	-0.416315211082645	0.0	0.9766713339858645	-0.3393770592262637	0.0	0.9710739791895967	-0.2730027999154516	0.0	0.986233852232668	-0.4192130152071812	0.0	0.9891916257844376	-0.35107782668505455	0.0	0.9801944783956611	-0.2938778574406283	0.0
4	0.1341772151898734	0.9836011935587876	-0.5636936498769732	0.0	0.982852489574113	-0.5645296781533611	0.0	0.9844492223010157	-0.6775971867160189	0.0	0.9756585430139151	-0.7960264155269219	0.0	1.0049701948780214	-0.8155480010559586	0.0	0.9926369257692055	-0.8205040392867485	0.0	0.9668220278769518	-0.8133197004824299	0.0	0.9862008921976574	-0.5634268264630043	0.0	0.9857695215296607	-0.6773974776970432	0.0	0.9770890210354171	-0.7918502553398056	0.0	1.009719928026782	-0.813134846126957	0.0	1.0069002727474834	-0.8100806888307815	0.0	0.9663658593930947	-0.8088662570482065	0.0	0.9827013365096885	-0.4097909218509075	0.0	1.0216037333549275	-0.3365560886628868	0.0	1.016608326196177	-0.37953260707462083	0.0	0.9699825215828275	-0.415880178163027	0.0	0.9785374916499752	-0.33941819587657984	0.0	0.9729540174487271	-0.272613622186136	0.0	0.9863984305988163	-0.41889793593032215	0.0	0.9906911271839681	-0.3509625889327388	0.0	0.981968958451233	-0.29331391594923045	0.0
5	0.16772151898734178	0.9827916356207111	-0.5637195830293292	0.0	0.9820492910096918	-0.5643505486577284	0.0	0.9844738661756889	-0.6774621721618598	0.0	0.9756483016895728	-0.7953929226436456	0.0	1.0057752227726593	-0.814353156449776	0.0	0.9934754744207035	-0.8197628997411357	0.0	0.9667215052427726	-0.8127049235870946	0.0	0.9854883466229301	-0.563129673907291	0.0	0.9855958434047948	-0.6774296053529932	0.0	0.9771290577148156	-0.7909642310014869	0.0	1.0100955904252271	-0.8119680760522351	0.0	1.0074197317987175	-0.8091266287608895	0.0	0.9662991651995008	-0.8081675593993997	0.0	0.9831093850089834	-0.4087023290063734	0.0	1.023055159395259	-0.33622364494599993	0.0	1.0167327168754805	-0.3792166187182158	0.0	0.9706943299364712	-0.4147455264404579	0.0	0.9804301194762165	-0.3381783973146835	0.0	0.9751138211888831	-0.27133987801197346	0.0	0.9864458155827709	-0.41762796482323095	0.0	0.9924201785131477	-0.3499330602197182	0.0	0.9841434021778603	-0.29223628596192686	0.0
6	0.20126582278481012	0.98180984058827	-0.5634713758242266	0.0	0.9809927888438562	-0.5638490989210487	0.0	0.9843236948463583	-0.6769926896468484	0.0	0.9754405542016552	-0.7941711135602695	0.0	1.006686853646232	-0.8124655558466239	0.0	0.9944011918490484	-0.8181771694365073	0.0	0.9665499671917589	-0.8114531513695682	0.0	0.9847480370731513	-0.5625054298773025	0.0	0.9854462587133748	-0.677038909057289	0.0	0.9771965386650299	-0.7893995402105249	0.0	1.01064469643435	-0.8100444942315689	0.0	1.0081782212787336	-0.8074091695612187	0.0	0.9662147108315157	-0.8067345196656044	0.0	0.9834258119863822	-0.40700844580681655	0.0	1.02446009264662	-0.33544411689026216	0.0	1.016780796041258	-0.37841948080654086	0.0	0.9713112171327278	-0.4129746696720929	0.0	0.982282381923604	-0.3361973965851164	0.0	0.977454457786617	-0.2694842217860051	0.0	0.9865138804877478	-0.4156581941207787	0.0	0.9942952531550348	-0.34839946426455953	0.0	0.9867271326457389	-0.291081267021827	0.0
7	0.23481012658227846	0.9807387052351346	-0.5630376138209651	0.0	0.9796909376967275	-0.5631638522618937	0.0	0.9838645322533459	-0.6762662886976095	0.0	0.9749073431365032	-0.7925666107167979	0.0	1.007347896326767	-0.810211569817344	0.0	0.9951134111006545	-0.8160992637653561	0.0	0.9662429442937318	-0.8097987477892447	0.0	0.9840026081374329	-0.5617695814754217	0.0	0.9852603276193862	-0.6763009285655737	0.0	0.9772952951035536	-0.787355128516039	0.0	1.0113444580360944	-0.8075628658388005	0.0	1.0090445918522493	-0.8050516321208869	0.0	0.966278550450649	-0.8047077631613951	0.0	0.9837121553629864	-0.40497526774003	0.0	1.0255232342820821	-0.33432324971760635	0.0	1.016794242313077	-0.3771530814366453	0.0	0.9718296286407504	-0.41090927060324095	0.0	0.9840804417402538	-0.33373243417541565	0.0	0.9799398240511858	-0.26710574776968987	0.0	0.9866084229679433	-0.41347535615684555	0.0	0.9961091972925596	-0.346549882861643	0.0	0.9895716019574564	-0.289672266823715	0.0
8	0.2683544303797468	0.9796375813020941	-0.5627188290248001	0.0	0.9782660215559832	-0.5625993155624825	0.0	0.9829959430244973	-0.6754610417914211	0.0	0.974013569324633	-0.7909088677387774	0.0	1.007443570456625	-0.8080186630840654	0.0	0.9953509434482983	-0.8140600899776564	0.0	0.9657873306556332	-0.8081862794771701	0.0	0.9832454612377546	-0.5612930181856388	0.0	0.9849786880413998	-0.675391543777439	0.0	0.9775247282544656	-0.7851260723549529	0.0	1.0123803194459875	-0.8047340407095044	0.0	1.0101681678984071	-0.8021574157510165	0.0	0.9667968409032892	-0.8023707238365052	0.0	0.9841069718278195	-0.4028684620055134	0.0	1.0261673017662325	-0.3331378079287458	0.0	1.0166660349335537	-0.37549869388816687	0.0	0.9724715726944103	-0.40897213983031805	0.0	0.9858624697644018	-0.3308178904817821	0.0	0.9826370075906871	-0.26417003229576275	0.0	0.9867018150414854	-0.41158605539575116	0.0	0.9976855354631738	-0.3443820894370181	0.0	0.9925296743576736	-0.2875492216864957	0.0
9	0.3018987341772152	0.9785462437686856	-0.5626548282360625	0.0	0.9768415604356268	-0.5622765010322991	0.0	0.981751790279437	-0.6746453310009162	0.0	0.9728469401965374	-0.7893881279003208	0.0	1.0069518037450467	-0.8061802877270988	0.0	0.9951194810798712	-0.812378719635539	0.0	0.9651683678423153	-0.8068351514231554	0.0	0.9824622435069763	-0.5612136228081687	0.0	0.984519991159455	-0.6743789969439772	0.0	0.9778707501674873	-0.7829056120139587	0.0	1.0137423999124062	-0.801768479726039	0.0	1.011542391642177	-0.7988949318127461	0.0	0.9677044123418868	-0.7998998989155646	0.0	0.9847598118760604	-0.40090603496225347	0.0	1.0267211164302146	-0.33221920827898027	0.0	1.0165742991547464	-0.37371843431510177	0.0	0.9733953188419225	-0.40741728291651524	0.0	0.987691755599893	-0.3276938244951665	0.0	0.98566979720717	-0.2609441654312793	0.0	0.9868580543334659	-0.4102705312037345	0.0	0.9989972037008987	-0.3419770933973493	0.0	0.9955483622292632	-0.2846193354120324	0.0
10	0.33544303797468356	0.9774765549201264	-0.5626922333828747	0.0	0.9754757346138201	-0.5620454657251123	0.0	0.980311637129985	-0.6737656368870628	0.0	0.9715767699566046	-0.7880613336601365	0.0	1.006121583825178	-0.8048079922902708	0.0	0.9946599606355747	-0.8111198004276204	0.0	0.9643471343281811	-0.8057305601849899	0.0	0.9816622077472054	-0.56133497670745	0.0	0.9838528633411243	-0.6732300600847572	0.0	0.9781718300652358	-0.7808552059861823	0.0	1.015130262428391	-0.7989639417583724	0.0	1.0128624441155927	-0.7956476189414164	0.0	0.9685658347161403	-0.7974380664358246	0.0	0.9857116468877551	-0.3992560608052101	0.0	1.027691742507642	-0.3317923152373838	0.0	1.0169195171021865	-0.37219579082108967	0.0	0.9745174645036728	-0.40629719418708315	0.0	0.9896306486798632	-0.32495999721502766	0.0	0.9891283184944261	-0.2580610778980689	0.0	0.9871995689913889	-0.4095241258797567	0.0	1.000115364557396	-0.33960116525242157	0.0	0.99860539963621	-0.2812598582889724	0.0
